# xmcd
#
# Track frame offsets: 
#        187
#        18720
#        40150
#        54575
#        73590
#        92085
#        109430
#        129950
#        146855
#        159505
#        172107
#        190575
#        200937
#
# Disc length: 2845 seconds
#
# Revision: 2
# Processed by: cddbd v1.5.2PL0 Copyright (c) Steve Scherf et al.
# Submitted via: ExactAudioCopy v0.99pb4
#
DISCID=c30b1b0d
DTITLE=Harmonica Fats and The Bernie Pearl Blues Band - I Had To Get Na
DTITLE=sty
DYEAR=1992
DGENRE=Blues
TTITLE0=In Love With Three Girls
TTITLE1=Put My Clothes and Shoes Back In The Closet
TTITLE2=I had To Get Nasty
TTITLE3=Jelly Rollin' Papa
TTITLE4=Harmonica Fats Blows
TTITLE5=Baby, You
TTITLE6=Boogie All TheThe Way
TTITLE7=Louisiana Blues
TTITLE8=She Got Soul
TTITLE9=Slidin' Defender
TTITLE10=Low Desert
TTITLE11=Automobile Blues
TTITLE12=It's Christmas Time, Baby
EXTD=CD Sleeve has Harmonica Fats \nAutograph
EXTT0=
EXTT1=
EXTT2=
EXTT3=
EXTT4=
EXTT5=
EXTT6=
EXTT7=
EXTT8=
EXTT9=
EXTT10=
EXTT11=
EXTT12=
PLAYORDER=
